<svg id="Layer_1" data-name="Layer 1" xmlns="http://www.w3.org/2000/svg" viewBox="0 0 1000 1000"><defs><style>.cls-1{opacity:0.8;}.cls-2{fill:#e7b727;}.cls-3{opacity:0.8;}</style></defs><title>24h</title><g class="cls-1"><path class="cls-2" d="M462.49,180a281.45,281.45,0,0,0-169.8,92.5c-43.34,49.81-68.57,114.66-68.57,177.24v18.1h-16.5c-18.27.17-27.65,2.42-43.82,11-12.77,6.63-28.46,22.8-35.74,36.71-9.53,18.11-10.66,26.2-10.66,85.06,0,46.41.32,53.2,3.23,64.37,4.37,17.3,10.18,27.33,23.61,40.91,18.11,18.11,37.68,26.36,62.58,26.36,24.74,0,45.12-8.41,62.58-25.88,12-12,17.47-20.53,22.8-35.58,3.56-10,3.72-13.1,4.36-63.72.32-34.77,0-56.6-1.29-63.55-2.42-13.91-7.12-26.2-13.91-36.06l-5.5-8.09V468.27c0-50.61,6.3-78.43,26-115.95,48-91.52,152.67-138.9,253.89-114.81C619,252.39,675,296.05,703.92,353.14c19.73,39,26.36,69.54,26.36,122.42v25.07L724.62,510c-12.13,20-12.77,24.26-13.42,83.93-.65,59.19.32,68.25,8.09,85.38l5,10.83-4.53,8.57A177.22,177.22,0,0,1,632,777.63c-27.65,11.49-77.46,19.73-102.37,16.82-9.21-1-10.67-1.62-13.58-6.15a29.28,29.28,0,0,0-8.57-8.09c-5.5-3.23-29.76-7.6-42.05-7.6-24.09,0-37.52,28.46-22,46.9,6.3,7.44,11.15,9.21,31.7,12,22.64,2.91,28.3,1.78,37.68-7.44l6.47-6.47,29.11-.48c21.83-.32,33.15-1.14,45.44-3.72Q664.63,799.06,711,750.46c11.15-11.64,27.82-33.31,29.43-38.17.32-1.13,3.88.49,9.38,4.05,14.72,10.18,27.65,14.55,45.12,15.53,28.46,1.46,49-6.47,68.89-26.36,12.77-12.78,19.89-25.55,24.09-43,3.39-14.55,3.39-108.67,0-124.84-6.47-30.4-30.4-56.11-62.26-66.79-6.47-2.1-13.74-2.91-26-2.91H782.52l-1-22c-3.08-71.8-31.37-136.65-81.34-186.62-43.66-43.66-96.38-70-158.8-79.4C522.32,177,482.71,177,462.49,180Z"/></g><g class="cls-3"><path class="cls-2" d="M379,426.85q31.55,0,49.43,12t17.88,37.59a53.83,53.83,0,0,1-10,31.12q-10,14.51-31.12,32.25l-11.54,9.85h51.25l3.38,40.28H321V560.05l53.23-46.18a64.79,64.79,0,0,1,6.47-5.35A144,144,0,0,0,395.78,494q4.92-5.76,4.93-11.68,0-6.76-6.2-10.14t-17.18-3.38a71.33,71.33,0,0,0-23.93,4.51,146.06,146.06,0,0,0-22.25,9.85l-6.48-41.68Q349.17,426.85,379,426.85Z"/><path class="cls-2" d="M592.21,534.43h28.16l-2.53,40.27H592.21v32.95H541V574.7H462.66l-5.91-37.46L553.91,429.1h38.3Zm-51.26,0V506.26L517,534.43Z"/></g><g class="cls-3"><path class="cls-2" d="M689.91,573v34.65H669.76V574.88q0-6.42-5.75-6.42a19.44,19.44,0,0,0-5,.94,43.8,43.8,0,0,0-5.86,2.16v36.09H633V530.71l20.15-1.21v27.34q9.3-4.65,17.27-4.65,9.74,0,14.61,5.7T689.91,573Z"/></g></svg>