<?xml version="1.0" encoding="utf-8"?>
<!-- Generator: Adobe Illustrator 22.0.0, SVG Export Plug-In . SVG Version: 6.00 Build 0)  -->
<svg version="1.1" id="Layer_1" xmlns="http://www.w3.org/2000/svg" xmlns:xlink="http://www.w3.org/1999/xlink" x="0px" y="0px"
	 viewBox="0 0 80 80" style="enable-background:new 0 0 80 80;" xml:space="preserve">
<style type="text/css">
	.st0{opacity:0.8;}
	.st1{fill:#E7B727;}
</style>
<g class="st0">
	<path class="st1" d="M39.8,72.8c-2.7-0.9-4.5-2.7-4.7-5.7c-3.4-0.3-5.7-1.9-6.8-5.1c-0.9-2.6-0.3-3.4,2.5-3.7c0-13.3,0-26.5,0-39.8
		c-0.1-0.1-0.2-0.1-0.2-0.2c-2.5-0.2-3.1-1-2.3-3.5c1-3.3,3.4-4.9,6.9-5.2c0.2-3,2-4.8,4.7-5.7c0.7,0,1.4,0,2.1,0
		c2.7,0.9,4.5,2.7,4.7,5.7c3.4,0.3,5.7,1.9,6.8,5.1c0.9,2.6,0.3,3.4-2.5,3.7c0,13.3,0,26.5,0,39.9c0.3,0,0.7,0.1,1,0.1
		c1.4,0,1.9,0.8,1.8,2.1c-0.3,3.6-2.7,5.9-7.1,6.7c-0.2,3-2,4.7-4.7,5.6C41.2,72.8,40.5,72.8,39.8,72.8z M33.8,49.7
		c4.6-0.2,10.3-2.3,13.7-5.1c0.3-0.2,0.6-0.5,0.6-0.8c0.1-1.5,0-3,0-4.7c-4.5,3-9.3,4.5-14.3,5C33.8,46.1,33.8,47.9,33.8,49.7z
		 M33.7,58.3c4,0.1,11-2.5,13.8-5.1c0.2-0.2,0.4-0.5,0.5-0.7c0-1.5,0-3,0-4.8c-4.5,3.1-9.3,4.4-14.3,5
		C33.7,54.7,33.7,56.5,33.7,58.3z M48.1,30.5c-4.5,3-9.3,4.4-14.3,5c0,2,0,3.8,0,5.7c5-0.5,9.5-2,13.5-5c0.4-0.3,0.7-1,0.8-1.5
		C48.1,33.4,48.1,32.1,48.1,30.5z M48.1,21.9c-4.5,3-9.3,4.5-14.3,4.9c0,2,0,3.8,0,5.7c5.2-0.4,9.7-2.1,13.7-5.2
		c0.3-0.2,0.5-0.7,0.5-1.1C48.1,24.9,48.1,23.6,48.1,21.9z M50.4,61.4c-6.4,0-12.8,0-19.2,0c0.5,1.7,1.8,2.8,3.6,2.8
		c4,0.1,8,0.1,12.1,0C48.7,64.2,50,63.1,50.4,61.4z M31.3,15.4c6.4,0,12.8,0,19.1,0c-0.5-1.7-1.9-2.8-3.7-2.9c-3.9,0-7.8,0-11.8,0
		C33.1,12.6,31.8,13.7,31.3,15.4z M33.7,24c5.3-0.5,9.9-2.2,14.2-5.5c-4.9,0-9.5,0-14.2,0C33.7,20.2,33.7,22,33.7,24z M43.6,9.7
		c-0.2-1.8-1.3-3-2.9-2.9c-1.5,0.1-2.6,1.1-2.7,2.9C39.9,9.7,41.8,9.7,43.6,9.7z M38,67.1c0.3,1.8,1.4,2.9,2.9,2.9
		c1.5,0,2.5-1.1,2.8-2.9C41.8,67.1,40,67.1,38,67.1z M48,58.4c0-0.7,0-1.3,0-2c-1.1,0.6-2.1,1.2-3.5,2C46,58.4,46.9,58.4,48,58.4z"
		/>
</g>
</svg>
