<?xml version="1.0" encoding="utf-8"?>
<!-- Generator: Adobe Illustrator 22.0.0, SVG Export Plug-In . SVG Version: 6.00 Build 0)  -->
<svg version="1.1" id="Layer_1" xmlns="http://www.w3.org/2000/svg" xmlns:xlink="http://www.w3.org/1999/xlink" x="0px" y="0px"
	 viewBox="0 0 80 80" style="enable-background:new 0 0 80 80;" xml:space="preserve">
<style type="text/css">
	.st0{opacity:0.5;}
	.st1{fill:#E7B727;}
</style>
<g class="st0">
	<path class="st1" d="M36.4,60.1c1.1,2.4,2,4.4,3,6.6c-0.2,0-0.6,0.1-1,0.1c-7.4,0-14.8,0-22.2,0C11.8,66.7,9,64,9,59.5
		c0-12.7,0-25.4,0-38.2c0-4.4,2.7-7.1,7.1-7.1c2,0,3.9,0,6.2,0c0-1.2,0-2.3,0-3.4c0.1-1.9,1.5-3.2,3.2-3.2c1.8,0,3.1,1.4,3.1,3.3
		c0,1,0,2.1,0,3.2c6.7,0,13.2,0,19.9,0c0-1.2,0-2.3,0-3.4c0.1-1.8,1.4-3.1,3.1-3.1c1.7-0.1,3.1,1.3,3.3,3c0.1,1.1,0,2.2,0,3.6
		c2,0,3.9,0,5.8,0c4.8,0,7.4,2.6,7.4,7.5c0,6.6,0,13.2,0,19.8c0,1.3-0.3,2-1.3,2.9c-1.7,1.5-3.1,3.4-4.7,5.1
		c-0.2-0.2-0.4-0.3-0.6-0.5c0-6,0-12.1,0-18.3c-15.3,0-30.5,0-45.8,0c0,9.7,0,19.4,0,29.3C22.7,60.1,29.8,60.1,36.4,60.1z"/>
	<path class="st1" d="M56,64.3c3.7-3.7,7.1-7.1,10.6-10.6c1.4-1.4,2.7-2.8,4.1-4.1c1.4-1.3,3.4-1.2,4.6-0.1c1.2,1.2,1.3,3.3,0,4.6
		C69,60.6,62.6,67,56.1,73.4c-4-4-7.9-7.8-11.8-11.8c-1.2-1.3-1.1-3.3,0.1-4.4c1.3-1.3,3.2-1.4,4.5-0.1C51.3,59.4,53.5,61.8,56,64.3
		z"/>
</g>
</svg>
