<svg id="Layer_1" data-name="Layer 1" xmlns="http://www.w3.org/2000/svg" viewBox="0 0 1000 1000"><defs><style>.cls-1{opacity:0.8;}.cls-2{fill:#e7b727;}.cls-3{opacity:0.8;}</style></defs><title>mes</title><g class="cls-1"><path class="cls-2" d="M462.49,180a281.45,281.45,0,0,0-169.8,92.5c-43.34,49.81-68.57,114.66-68.57,177.24v18.1h-16.5c-18.27.17-27.65,2.42-43.82,11-12.77,6.63-28.46,22.8-35.74,36.71-9.53,18.11-10.66,26.2-10.66,85.06,0,46.41.32,53.2,3.23,64.37,4.37,17.3,10.18,27.33,23.61,40.91,18.11,18.11,37.68,26.36,62.58,26.36,24.74,0,45.12-8.41,62.58-25.88,12-12,17.47-20.53,22.8-35.58,3.56-10,3.72-13.1,4.36-63.72.32-34.77,0-56.6-1.29-63.55-2.42-13.91-7.12-26.2-13.91-36.06l-5.5-8.09V468.27c0-50.61,6.3-78.43,26-115.95,48-91.52,152.67-138.9,253.89-114.81C619,252.39,675,296.05,703.92,353.14c19.73,39,26.36,69.54,26.36,122.42v25.07L724.62,510c-12.13,20-12.77,24.26-13.42,83.93-.65,59.19.32,68.25,8.09,85.38l5,10.83-4.53,8.57A177.22,177.22,0,0,1,632,777.63c-27.65,11.49-77.46,19.73-102.37,16.82-9.21-1-10.67-1.62-13.58-6.15a29.28,29.28,0,0,0-8.57-8.09c-5.5-3.23-29.76-7.6-42.05-7.6-24.09,0-37.52,28.46-22,46.9,6.3,7.44,11.15,9.21,31.7,12,22.64,2.91,28.3,1.78,37.68-7.44l6.47-6.47,29.11-.48c21.83-.32,33.15-1.14,45.44-3.72Q664.63,799.06,711,750.46c11.15-11.64,27.82-33.31,29.43-38.17.32-1.13,3.88.49,9.38,4.05,14.72,10.18,27.65,14.55,45.12,15.53,28.46,1.46,49-6.47,68.89-26.36,12.77-12.78,19.89-25.55,24.09-43,3.39-14.55,3.39-108.67,0-124.84-6.47-30.4-30.4-56.11-62.26-66.79-6.47-2.1-13.74-2.91-26-2.91H782.52l-1-22c-3.08-71.8-31.37-136.65-81.34-186.62-43.66-43.66-96.38-70-158.8-79.4C522.32,177,482.71,177,462.49,180Z"/></g><g class="cls-3"><path class="cls-2" d="M530.32,504.94l-12.11,16.33-9.62,1.32L494.1,504.94v43.33h-24V458.72H486.6l27,34.11,24.76-34.11h15.93v89.55h-24Z"/><path class="cls-2" d="M601.83,482.16q9.88,0,16.73,4.48a28.32,28.32,0,0,1,10.34,12,39.29,39.29,0,0,1,3.49,16.73v7H593.54a11.5,11.5,0,0,0,4.93,6.38A17.56,17.56,0,0,0,608,531a37.74,37.74,0,0,0,17.52-4.35l6.71,16.2q-3.94,2.89-11.39,4.87a58.89,58.89,0,0,1-15.21,2,48.63,48.63,0,0,1-19.82-3.82,30.18,30.18,0,0,1-13.5-11.39q-4.87-7.57-4.87-18.11a35.75,35.75,0,0,1,4.48-18.18,30.28,30.28,0,0,1,12.31-11.91A36.91,36.91,0,0,1,601.83,482.16Zm7-11.33L602,462.67l-7,8.16-23.31-2.63,22.92-23.58h14.09L631.6,468.2Zm-7.64,30.56a7.84,7.84,0,0,0-5.86,2.76,8.53,8.53,0,0,0-2.43,6.32h16.59a10.31,10.31,0,0,0-2.11-6.19A7.16,7.16,0,0,0,601.17,501.39Z"/><path class="cls-2" d="M665.18,549.72a67.3,67.3,0,0,1-14-1.85q-8.37-1.83-13.23-5.66l6.71-15.14a46.71,46.71,0,0,0,9.29,3.16,39.48,39.48,0,0,0,8.89,1.31,8.77,8.77,0,0,0,4-.79,2.36,2.36,0,0,0,1.58-2.1c0-.53-.59-1.17-1.78-1.91a20.67,20.67,0,0,0-4.54-2,60.05,60.05,0,0,1-16.4-8.43,15.32,15.32,0,0,1-6.39-12.78q0-10,7.51-15.67t20.81-5.66A57.4,57.4,0,0,1,680,483.67,28.76,28.76,0,0,1,691.65,489l-6.72,15.14a53,53,0,0,0-8.1-2.76,30.62,30.62,0,0,0-7.57-1.06,12.08,12.08,0,0,0-4.74.79c-1.23.53-1.85,1.23-1.85,2.11,0,.53.62,1.14,1.85,1.84a28.81,28.81,0,0,0,4.87,2.11,54.85,54.85,0,0,1,16.13,8.36,15.61,15.61,0,0,1,6.26,12.84q0,10.15-6.72,15.74T665.18,549.72Z"/></g><g class="cls-3"><path class="cls-2" d="M459.6,383.34V636.09H378.33V474l-51.8,22.33-31.7-65.2,110.74-47.78Z"/></g></svg>