<?xml version="1.0" encoding="utf-8"?>
<!-- Generator: Adobe Illustrator 22.0.0, SVG Export Plug-In . SVG Version: 6.00 Build 0)  -->
<svg version="1.1" id="Layer_1" xmlns="http://www.w3.org/2000/svg" xmlns:xlink="http://www.w3.org/1999/xlink" x="0px" y="0px"
	 viewBox="0 0 80 80" style="enable-background:new 0 0 80 80;" xml:space="preserve">
<style type="text/css">
	.st0{opacity:0.5;}
	.st1{fill:#E7B727;}
</style>
<g class="st0">
	<path class="st1" d="M65.2,57.4c0,0.6,0,1.1,0,1.7c-0.1,0.4-0.2,0.7-0.2,1.1c-0.6,4.1-2.7,7.2-6.7,8.5c-2,0.7-4.1,0.9-6.2,1.2
		c-2,0.3-4,0.3-6.1,0.5c-2.9,0-5.7,0-8.6,0c-1.3-0.1-2.6-0.1-3.9-0.3c-2.8-0.3-5.5-0.5-8.2-1c-4.6-0.9-7.5-3.6-8.2-8.3
		c-0.1-0.9-0.2-1.8-0.3-2.7c0-0.3,0-0.7,0-1c0.5-2.2,0.7-4.5,1.4-6.5c2.9-8.5,8.3-15.3,15.3-20.9c1.4-1.1,2.9-1.9,4.4-2.9
		c0.1,0.1,0.1,0.2,0.2,0.3c-0.6,1.2-1.3,2.4-1.9,3.7c1.1-1,2-2.2,2.9-3.4c0.9-1.1,2.6-1,3.2,0.3c0.7,1.4,1.4,2.8,2.1,4.2
		c0.1,0,0.1-0.1,0.2-0.1c-0.3-1.6-0.7-3.2-1-4.8c0.1-0.1,0.2-0.2,0.3-0.3c1.2,0.7,2.5,1.3,3.6,2.1c4,2.9,7.1,6.6,10,10.6
		C61.4,44.8,64.4,50.6,65.2,57.4z M42.1,41.7c1.5,0.4,2,1.6,2.5,2.8c0.4,1,1.4,1.5,2.3,1.3c1-0.3,1.6-1.3,1.4-2.4
		c-0.5-2.2-1.9-3.6-3.9-4.4c-0.7-0.3-1.5-0.4-2.2-0.6c-0.2-0.9,0.2-2.1-1.1-2.1c-1.6,0-0.7,1.5-1.2,2.2c-0.5,0.1-1,0.2-1.5,0.3
		c-2.4,0.7-4.2,2-4.7,4.6c-0.5,2.4-0.1,4.6,2,6.2c1.1,0.8,2.4,1.1,3.6,1.7c0.3,0.2,0.8,0.5,0.8,0.7c0.1,2.1,0,4.3,0,6.4
		c-0.1,0.1-0.2,0.2-0.3,0.3c-0.6-0.5-1.4-1-1.9-1.7c-0.5-0.6-0.7-1.5-1-2.2c-0.5-1.2-1.3-1.6-2.4-1.3c-1.1,0.3-1.6,1.1-1.5,2.3
		c0.3,2.2,1.4,3.8,3.3,4.8c1.2,0.6,2.5,1,3.7,1.5c0.5,0.7-0.6,2.4,1,2.4c1.8,0.1,0.7-1.7,1.3-2.6c0.5-0.1,1-0.2,1.5-0.3
		c3.2-0.8,5.2-3.3,5.4-6.5c0.1-3.1-1.7-5.4-5-6.5c-0.7-0.2-1.4-0.4-2-0.6C42.1,45.9,42.1,43.9,42.1,41.7z"/>
	<path class="st1" d="M43.3,7.6c1.5,0.3,3,0.6,4.4,0.9c0.8,0.2,1.5,0.7,2.4,1c-0.9,2.1-1.7,4-2.5,6c0.1,0,0.1,0.1,0.2,0.1
		c0.8-1,1.5-2,2.4-3.2c0.7,0.7,1.4,1.2,1.9,1.9c1,1.3,1,2.6,0,3.9c-2,2.4-4,4.7-6,7c-1,1.1-1.8,0-2.9,0c0.3-0.9,0.6-1.6,0.9-2.3
		c-1.2,2-3.1,1.9-5,1.9c-1.1,0-2.2,0.4-3.5,0.7c-2.1-2.5-4.4-5.2-6.6-8c-0.8-1-0.5-2.1,0.4-2.9c1-0.9,2.2-1.7,3.4-2.6
		c1,2,2,3.7,2.9,5.5c0,0,0.1,0,0.1,0c-0.7-2.6-1.5-5.2-2.2-7.8c1.4-1.3,3-1.6,4.7-1.9c0.4-0.1,0.8-0.2,1.2-0.2
		C40.9,7.6,42.1,7.6,43.3,7.6z"/>
	<path class="st1" d="M42.1,58.6c0-2.2,0-4.3,0-6.4c2,0.4,3.2,1.5,3.2,3.1C45.3,57,44,58.3,42.1,58.6z"/>
	<path class="st1" d="M40,41.7c0,1.9,0,3.7,0,5.5c-1.9-0.4-2.6-1.2-2.6-2.8C37.4,42.9,38.1,42.1,40,41.7z"/>
</g>
</svg>
