<?xml version="1.0" encoding="utf-8"?>
<!-- Generator: Adobe Illustrator 22.0.0, SVG Export Plug-In . SVG Version: 6.00 Build 0)  -->
<svg version="1.1" id="Layer_1" xmlns="http://www.w3.org/2000/svg" xmlns:xlink="http://www.w3.org/1999/xlink" x="0px" y="0px"
	 viewBox="0 0 80 80" style="enable-background:new 0 0 80 80;" xml:space="preserve">
<style type="text/css">
	.st0{opacity:0.5;}
	.st1{fill:#E7B727;}
</style>
<g class="st0">
	<path class="st1" d="M60.1,63.2c0,2.3,0,4.6,0,6.8c0,1.7-0.7,2.7-2.2,3.1c-1.5,0.4-2.6-0.3-3.4-1.5c-1.5-2.4-3-4.7-4.4-7.1
		c-0.6-1-1.3-1.4-2.5-1.4c-8.9,0.1-17.9,0-26.8,0c-4.9,0-8-3.1-8.1-8c0-1.4,0-2.8,0-4.3c-1.2,0-2.2,0-3.2,0
		c-2.1-0.1-3.4-1.3-3.5-3.5c0-4,0-8,0-12c0-2.2,1.3-3.4,3.5-3.4c1,0,2,0,3.2,0c0-0.9,0-1.8,0-2.6c0-5.4,3-8.5,8.4-8.5
		c5.4,0,10.8,0,16.2,0c0.5,0,1.1,0,1.7,0c0.2-1.6,0.4-2.8-1.5-3.7c-2.2-1.1-3.1-4-2.3-6.4c0.7-2.3,3-4,5.4-4c2.5,0,4.8,1.7,5.5,4.1
		c0.7,2.3-0.1,5.2-2.3,6.3c-1.8,0.8-1.7,2-1.5,3.7c0.5,0,1,0,1.5,0c5.5,0,11,0,16.5,0c4.8,0,7.9,3.1,8,8c0,0.9,0,1.9,0,3.1
		c1.2,0,2.2,0,3.3,0c2.1,0,3.4,1.3,3.4,3.4c0,4,0,8.1,0,12.1c0,2-1.4,3.3-3.4,3.4c-1,0-2.1,0-3.3,0c0,1.2,0,2.3,0,3.4
		C68.4,60,66.1,62.5,60.1,63.2z M56.7,69.4c0.1,0,0.2,0,0.3-0.1c0-2,0-4.1,0-6.1c0-2,1.2-3.1,3.2-3.2c3.5-0.1,5-1.7,5-5.1
		c0-8.6,0-17.3,0-25.9c0-3.5-1.7-5.1-5.2-5.1c-13,0-25.9,0-38.9,0c-3.6,0-5.2,1.6-5.3,5.2c0,8.6,0,17.2,0,25.7
		c0,3.6,1.6,5.2,5.2,5.2c9.2,0,18.5,0,27.7,0c1.6,0,2.6,0.6,3.3,1.9C53.6,64.4,55.2,66.9,56.7,69.4z M12.6,47.6c0-4.3,0-8.4,0-12.5
		c-1.2,0-2.3,0-3.4,0c0,4.2,0,8.3,0,12.5C10.4,47.6,11.5,47.6,12.6,47.6z M72,35.1c-1.2,0-2.4,0-3.6,0c0,4.2,0,8.3,0,12.5
		c1.2,0,2.3,0,3.5,0c0-0.4,0.1-0.7,0.1-1C72,42.8,72,39,72,35.1z M43.3,12.5c0-1.4-1.1-2.6-2.5-2.6c-1.4,0-2.6,1.2-2.6,2.7
		c0,1.4,1.1,2.6,2.5,2.6C42.1,15.2,43.3,14,43.3,12.5z"/>
	<path class="st1" d="M40.8,54.6c-2.5-0.5-4.8-1-7.1-1.6c-0.6-0.2-1.3-1.1-1.4-1.8c-0.2-1,0.9-1.6,2-1.2c4.2,1.5,8.5,1.5,12.7,0
		c0.9-0.3,1.7-0.3,2.1,0.8c0.3,1-0.1,1.8-1.1,2.1C45.6,53.6,43.2,54.1,40.8,54.6z"/>
	<path class="st1" d="M32.1,34.3c2.3,0,4.5,1.6,5.1,3.7c0.3,1,0.3,1.9-0.9,2.3c-1.1,0.4-1.7-0.2-2-1.2c-0.3-1.1-1.1-1.7-2.2-1.7
		c-1.2,0-1.9,0.7-2.3,1.8c-0.3,1.1-1,1.5-2,1.1c-1.1-0.4-1.2-1.2-0.9-2.2C27.6,35.9,29.7,34.3,32.1,34.3z"/>
	<path class="st1" d="M49.4,34.3c2.4,0,4.6,1.7,5.1,3.9c0.2,1,0.1,1.8-1,2.1c-1,0.3-1.6-0.1-1.9-1.1c-0.3-1.1-1.1-1.9-2.2-1.8
		c-1.2,0-1.9,0.7-2.2,1.9c-0.3,1-0.9,1.4-1.9,1.1c-1.1-0.3-1.3-1.2-1-2.1C44.7,36,47,34.3,49.4,34.3z"/>
</g>
</svg>
